<?xml version="1.0" encoding="UTF-8" standalone="no"?>
<!DOCTYPE svg PUBLIC "-//W3C//DTD SVG 1.1//EN" "http://www.w3.org/Graphics/SVG/1.1/DTD/svg11.dtd">
<svg width="100%" height="100%" viewBox="0 0 4445 3334" version="1.1" xmlns="http://www.w3.org/2000/svg" xmlns:xlink="http://www.w3.org/1999/xlink" xml:space="preserve" xmlns:serif="http://www.serif.com/" style="fill-rule:evenodd;clip-rule:evenodd;stroke-linecap:round;stroke-linejoin:round;stroke-miterlimit:1.5;">
    <g transform="matrix(5.55556,0,0,5.55556,0,0)">
        <g transform="matrix(0.985303,0,0,0.99518,6.21857,0.0110831)">
            <rect x="5.643" y="117.821" width="789.206" height="301.167" style="fill:rgb(41,45,62);stroke:rgb(31,72,156);stroke-width:13.13px;"/>
        </g>
        <g transform="matrix(-8.82781,0.00196512,0.000222606,1,2226.4,-0.445218)">
            <path d="M226.547,117.264L226.248,416.979" style="fill:none;stroke:rgb(31,72,156);stroke-width:2.07px;"/>
        </g>
        <g transform="matrix(8.94366,0,0,8.94366,-2255.15,-1971.97)">
            <g transform="matrix(12,0,0,12,281.257,255.445)">
                <path d="M0.035,-0.667L0.428,-0.667L0.428,-0.492L0.248,-0.492L0.248,-0.418L0.425,-0.418L0.425,-0.252L0.248,-0.252L0.248,-0L0.035,-0L0.035,-0.667ZM0.161,-0.08L0.161,-0.323L0.351,-0.323L0.351,-0.347L0.161,-0.347L0.161,-0.563L0.361,-0.563L0.361,-0.587L0.135,-0.587L0.135,-0.08L0.161,-0.08Z" style="fill:rgb(197,227,103);fill-rule:nonzero;"/>
            </g>
            <g transform="matrix(12,0,0,12,286.633,255.445)">
                <path d="M0.233,-0.667L0.393,-0.667L0.646,-0L0.436,-0L0.414,-0.06L0.212,-0.06L0.19,-0L-0.02,-0L0.233,-0.667ZM0.358,-0.207L0.313,-0.324L0.268,-0.207L0.358,-0.207ZM0.129,-0.08L0.148,-0.13L0.478,-0.13L0.497,-0.08L0.525,-0.08L0.332,-0.587L0.294,-0.587L0.101,-0.08L0.129,-0.08ZM0.313,-0.563L0.469,-0.154L0.157,-0.154L0.313,-0.563Z" style="fill:rgb(197,227,103);fill-rule:nonzero;"/>
            </g>
            <g transform="matrix(12,0,0,12,294.145,255.445)">
                <path d="M0.035,-0.667L0.21,-0.667L0.394,-0.41L0.394,-0.667L0.603,-0.667L0.603,-0L0.427,-0L0.244,-0.256L0.244,-0L0.035,-0L0.035,-0.667ZM0.154,-0.08L0.154,-0.542L0.484,-0.08L0.51,-0.08L0.51,-0.587L0.484,-0.587L0.484,-0.125L0.154,-0.587L0.128,-0.587L0.128,-0.08L0.154,-0.08Z" style="fill:rgb(197,227,103);fill-rule:nonzero;"/>
            </g>
            <g transform="matrix(12,0,0,12,301.801,255.445)">
                <path d="M0.146,-0.333C0.146,-0.365 0.152,-0.395 0.163,-0.423C0.173,-0.451 0.189,-0.475 0.209,-0.496C0.229,-0.517 0.253,-0.533 0.282,-0.545C0.311,-0.557 0.343,-0.563 0.378,-0.563C0.395,-0.563 0.411,-0.562 0.425,-0.56C0.438,-0.557 0.45,-0.554 0.459,-0.551C0.47,-0.548 0.48,-0.544 0.488,-0.539L0.502,-0.563C0.491,-0.568 0.48,-0.572 0.468,-0.576C0.457,-0.579 0.444,-0.582 0.429,-0.585C0.414,-0.588 0.397,-0.589 0.378,-0.589C0.344,-0.589 0.312,-0.583 0.281,-0.571C0.25,-0.559 0.222,-0.542 0.199,-0.52C0.175,-0.497 0.156,-0.47 0.142,-0.439C0.127,-0.407 0.12,-0.372 0.12,-0.333C0.12,-0.294 0.127,-0.258 0.141,-0.227C0.154,-0.196 0.173,-0.169 0.197,-0.147C0.221,-0.124 0.249,-0.107 0.281,-0.095C0.313,-0.083 0.347,-0.077 0.383,-0.077C0.403,-0.077 0.421,-0.079 0.437,-0.082C0.453,-0.085 0.467,-0.089 0.478,-0.093C0.491,-0.098 0.502,-0.103 0.512,-0.109L0.498,-0.133C0.489,-0.127 0.479,-0.122 0.468,-0.118C0.458,-0.114 0.446,-0.111 0.432,-0.108C0.418,-0.105 0.402,-0.103 0.383,-0.103C0.346,-0.103 0.313,-0.109 0.284,-0.121C0.255,-0.133 0.23,-0.149 0.21,-0.17C0.189,-0.191 0.173,-0.215 0.163,-0.243C0.152,-0.271 0.146,-0.301 0.146,-0.333ZM0.02,-0.333C0.02,-0.386 0.029,-0.435 0.048,-0.478C0.067,-0.521 0.092,-0.557 0.124,-0.588C0.156,-0.619 0.193,-0.642 0.236,-0.659C0.279,-0.675 0.324,-0.683 0.372,-0.683C0.41,-0.683 0.444,-0.679 0.474,-0.672C0.503,-0.665 0.529,-0.656 0.55,-0.647C0.575,-0.636 0.596,-0.625 0.614,-0.612L0.509,-0.427C0.498,-0.435 0.487,-0.443 0.474,-0.45C0.463,-0.455 0.449,-0.46 0.434,-0.466C0.418,-0.471 0.4,-0.473 0.38,-0.473C0.359,-0.473 0.34,-0.469 0.323,-0.462C0.306,-0.455 0.291,-0.445 0.278,-0.432C0.265,-0.419 0.254,-0.405 0.247,-0.388C0.24,-0.371 0.236,-0.352 0.236,-0.333C0.236,-0.314 0.24,-0.296 0.248,-0.279C0.255,-0.262 0.266,-0.247 0.279,-0.234C0.292,-0.221 0.308,-0.211 0.326,-0.204C0.344,-0.197 0.364,-0.193 0.385,-0.193C0.406,-0.193 0.425,-0.196 0.442,-0.201C0.459,-0.206 0.473,-0.212 0.484,-0.219C0.497,-0.226 0.509,-0.235 0.519,-0.245L0.624,-0.06C0.606,-0.045 0.585,-0.032 0.56,-0.021C0.539,-0.012 0.513,-0.003 0.483,0.005C0.453,0.013 0.419,0.017 0.38,0.017C0.328,0.017 0.28,0.009 0.236,-0.009C0.192,-0.026 0.154,-0.049 0.122,-0.08C0.09,-0.111 0.065,-0.148 0.047,-0.191C0.029,-0.234 0.02,-0.281 0.02,-0.333Z" style="fill:rgb(197,227,103);fill-rule:nonzero;"/>
            </g>
            <g transform="matrix(12,0,0,12,309.169,255.445)">
                <path d="M0.187,-0.287L-0.02,-0.667L0.217,-0.667L0.294,-0.526L0.37,-0.667L0.607,-0.667L0.4,-0.287L0.4,-0L0.187,-0L0.187,-0.287ZM0.307,-0.08L0.307,-0.319L0.453,-0.587L0.422,-0.587L0.294,-0.35L0.165,-0.587L0.135,-0.587L0.28,-0.319L0.28,-0.08L0.307,-0.08Z" style="fill:rgb(197,227,103);fill-rule:nonzero;"/>
            </g>
            <g transform="matrix(12,0,0,12,316.213,255.445)">
                <path d="M0.035,-0.667L0.257,-0.667L0.257,-0.175L0.441,-0.175L0.441,-0L0.035,-0L0.035,-0.667ZM0.385,-0.08L0.385,-0.104L0.161,-0.104L0.161,-0.587L0.135,-0.587L0.135,-0.08L0.385,-0.08Z" style="fill:rgb(197,227,103);fill-rule:nonzero;"/>
            </g>
            <g transform="matrix(12,0,0,12,321.505,255.445)">
                <path d="M0.02,-0.333C0.02,-0.381 0.029,-0.426 0.048,-0.469C0.066,-0.512 0.091,-0.549 0.123,-0.581C0.154,-0.612 0.191,-0.637 0.234,-0.656C0.277,-0.674 0.322,-0.683 0.37,-0.683C0.418,-0.683 0.463,-0.674 0.506,-0.656C0.549,-0.637 0.586,-0.612 0.618,-0.581C0.649,-0.549 0.674,-0.512 0.693,-0.469C0.711,-0.426 0.72,-0.381 0.72,-0.333C0.72,-0.285 0.711,-0.24 0.693,-0.197C0.674,-0.154 0.649,-0.117 0.618,-0.086C0.586,-0.054 0.549,-0.029 0.506,-0.011C0.463,0.008 0.418,0.017 0.37,0.017C0.322,0.017 0.277,0.008 0.234,-0.011C0.191,-0.029 0.154,-0.054 0.123,-0.086C0.091,-0.117 0.066,-0.154 0.048,-0.197C0.029,-0.24 0.02,-0.285 0.02,-0.333ZM0.114,-0.333C0.114,-0.298 0.121,-0.265 0.134,-0.234C0.147,-0.203 0.166,-0.175 0.189,-0.152C0.212,-0.129 0.24,-0.11 0.271,-0.097C0.302,-0.084 0.335,-0.077 0.37,-0.077C0.405,-0.077 0.439,-0.084 0.47,-0.097C0.501,-0.11 0.528,-0.129 0.551,-0.152C0.574,-0.175 0.593,-0.203 0.606,-0.234C0.619,-0.265 0.626,-0.298 0.626,-0.333C0.626,-0.368 0.619,-0.401 0.606,-0.433C0.593,-0.464 0.574,-0.491 0.551,-0.514C0.528,-0.537 0.501,-0.556 0.47,-0.569C0.439,-0.582 0.405,-0.589 0.37,-0.589C0.335,-0.589 0.302,-0.582 0.271,-0.569C0.24,-0.556 0.212,-0.537 0.189,-0.514C0.166,-0.491 0.147,-0.464 0.134,-0.433C0.121,-0.401 0.114,-0.368 0.114,-0.333ZM0.23,-0.333C0.23,-0.314 0.234,-0.296 0.241,-0.279C0.248,-0.262 0.258,-0.247 0.271,-0.234C0.284,-0.221 0.299,-0.211 0.316,-0.204C0.333,-0.197 0.351,-0.193 0.37,-0.193C0.389,-0.193 0.408,-0.197 0.425,-0.204C0.442,-0.211 0.456,-0.221 0.469,-0.234C0.482,-0.247 0.492,-0.262 0.499,-0.279C0.506,-0.296 0.51,-0.314 0.51,-0.333C0.51,-0.352 0.506,-0.371 0.499,-0.388C0.492,-0.405 0.482,-0.419 0.469,-0.432C0.456,-0.445 0.442,-0.455 0.425,-0.462C0.408,-0.469 0.389,-0.473 0.37,-0.473C0.351,-0.473 0.333,-0.469 0.316,-0.462C0.299,-0.455 0.284,-0.445 0.271,-0.432C0.258,-0.419 0.248,-0.405 0.241,-0.388C0.234,-0.371 0.23,-0.352 0.23,-0.333ZM0.37,-0.103C0.338,-0.103 0.308,-0.109 0.281,-0.121C0.253,-0.133 0.229,-0.15 0.208,-0.171C0.187,-0.192 0.17,-0.216 0.158,-0.244C0.146,-0.271 0.14,-0.301 0.14,-0.333C0.14,-0.365 0.146,-0.395 0.158,-0.423C0.17,-0.45 0.187,-0.474 0.208,-0.496C0.229,-0.517 0.253,-0.533 0.281,-0.545C0.308,-0.557 0.338,-0.563 0.37,-0.563C0.402,-0.563 0.432,-0.557 0.46,-0.545C0.487,-0.533 0.511,-0.517 0.533,-0.496C0.554,-0.474 0.57,-0.45 0.582,-0.423C0.594,-0.395 0.6,-0.365 0.6,-0.333C0.6,-0.301 0.594,-0.271 0.582,-0.244C0.57,-0.216 0.554,-0.192 0.533,-0.171C0.511,-0.15 0.487,-0.133 0.46,-0.121C0.432,-0.109 0.402,-0.103 0.37,-0.103Z" style="fill:rgb(197,227,103);fill-rule:nonzero;"/>
            </g>
            <g transform="matrix(12,0,0,12,330.385,255.445)">
                <path d="M0.46,-0.44C0.448,-0.451 0.433,-0.459 0.415,-0.465C0.397,-0.47 0.379,-0.473 0.362,-0.473C0.343,-0.473 0.325,-0.47 0.309,-0.463C0.293,-0.456 0.279,-0.446 0.268,-0.434C0.256,-0.421 0.247,-0.406 0.24,-0.389C0.233,-0.372 0.23,-0.353 0.23,-0.333C0.23,-0.313 0.234,-0.294 0.241,-0.277C0.248,-0.26 0.258,-0.245 0.271,-0.233C0.284,-0.22 0.299,-0.211 0.316,-0.204C0.333,-0.197 0.351,-0.193 0.37,-0.193C0.393,-0.193 0.413,-0.198 0.432,-0.208C0.451,-0.217 0.467,-0.23 0.48,-0.247L0.42,-0.247L0.42,-0.387L0.677,-0.387L0.677,-0.165C0.662,-0.138 0.643,-0.113 0.622,-0.091C0.601,-0.068 0.577,-0.049 0.551,-0.033C0.524,-0.017 0.496,-0.005 0.465,0.004C0.434,0.013 0.403,0.017 0.37,0.017C0.322,0.017 0.277,0.008 0.234,-0.01C0.191,-0.028 0.154,-0.053 0.123,-0.084C0.091,-0.115 0.066,-0.152 0.048,-0.195C0.029,-0.238 0.02,-0.284 0.02,-0.333C0.02,-0.381 0.029,-0.426 0.046,-0.469C0.063,-0.512 0.087,-0.549 0.118,-0.581C0.148,-0.612 0.184,-0.637 0.226,-0.656C0.267,-0.674 0.312,-0.683 0.36,-0.683C0.397,-0.683 0.43,-0.679 0.457,-0.672C0.484,-0.665 0.507,-0.656 0.526,-0.647C0.548,-0.636 0.566,-0.625 0.581,-0.612L0.46,-0.44ZM0.47,-0.569C0.461,-0.573 0.452,-0.576 0.441,-0.579C0.432,-0.582 0.421,-0.584 0.408,-0.586C0.395,-0.588 0.381,-0.589 0.366,-0.589C0.331,-0.589 0.298,-0.583 0.267,-0.57C0.236,-0.557 0.21,-0.54 0.187,-0.518C0.164,-0.495 0.147,-0.468 0.134,-0.437C0.121,-0.406 0.114,-0.371 0.114,-0.333C0.114,-0.295 0.121,-0.26 0.134,-0.229C0.147,-0.198 0.166,-0.171 0.189,-0.149C0.212,-0.126 0.24,-0.109 0.271,-0.096C0.302,-0.083 0.335,-0.077 0.37,-0.077C0.416,-0.077 0.458,-0.088 0.495,-0.11C0.532,-0.131 0.563,-0.16 0.586,-0.196L0.586,-0.327L0.48,-0.327L0.48,-0.303L0.56,-0.303L0.56,-0.203C0.539,-0.172 0.513,-0.148 0.48,-0.13C0.447,-0.112 0.41,-0.103 0.37,-0.103C0.338,-0.103 0.308,-0.109 0.281,-0.12C0.253,-0.131 0.229,-0.146 0.208,-0.167C0.187,-0.187 0.17,-0.211 0.158,-0.24C0.146,-0.268 0.14,-0.299 0.14,-0.333C0.14,-0.367 0.146,-0.398 0.158,-0.427C0.169,-0.455 0.185,-0.479 0.206,-0.5C0.226,-0.52 0.25,-0.536 0.277,-0.547C0.304,-0.558 0.334,-0.563 0.366,-0.563C0.378,-0.563 0.389,-0.562 0.4,-0.56C0.411,-0.558 0.42,-0.556 0.428,-0.554C0.437,-0.551 0.446,-0.549 0.454,-0.546L0.47,-0.569Z" style="fill:rgb(197,227,103);fill-rule:nonzero;"/>
            </g>
        </g>
        <g transform="matrix(0.440152,0,0,0.440152,124.207,265.885)">
            <g transform="matrix(1,0,0,1,-180,-180)">
                <g id="XMLID_227_">
                    <path id="XMLID_228_" d="M344.259,126.683L295.741,126.683L295.741,77.834L212.719,0L15.741,0L15.741,360L295.741,360L295.741,309.41L344.259,309.41L344.259,126.683ZM314.259,279.41L104.259,279.41L104.259,156.683L314.259,156.683L314.259,279.41Z" style="fill:rgb(31,72,152);fill-rule:nonzero;"/>
                    <path id="XMLID_231_" d="M170.892,234.942L139.035,234.942L139.035,183.11L126.892,183.11L126.892,245.59L170.892,245.59L170.892,234.942Z" style="fill:rgb(31,72,152);fill-rule:nonzero;"/>
                    <path id="XMLID_232_" d="M178.943,236.218C181.612,239.181 184.809,241.557 188.536,243.346C192.261,245.136 196.412,246.03 200.987,246.03C205.387,246.03 209.464,245.165 213.219,243.434C216.973,241.704 220.199,239.386 222.899,236.482C225.597,233.578 227.71,230.234 229.235,226.45C230.76,222.666 231.523,218.692 231.523,214.526C231.523,210.596 230.789,206.724 229.324,202.91C227.856,199.097 225.803,195.694 223.164,192.702C220.523,189.71 217.341,187.29 213.616,185.442C209.889,183.594 205.768,182.67 201.252,182.67C196.852,182.67 192.773,183.536 189.02,185.266C185.265,186.998 182.024,189.33 179.296,192.262C176.567,195.197 174.426,198.569 172.872,202.382C171.316,206.196 170.54,210.185 170.54,214.35C170.54,218.341 171.273,222.242 172.74,226.054C174.205,229.868 176.273,233.256 178.943,236.218ZM184.048,206.738C184.84,204.245 185.997,202.016 187.524,200.05C189.049,198.085 190.957,196.501 193.245,195.298C195.533,194.096 198.143,193.494 201.077,193.494C203.892,193.494 206.429,194.066 208.688,195.21C210.946,196.354 212.853,197.894 214.409,199.83C215.963,201.766 217.166,203.996 218.016,206.518C218.866,209.041 219.292,211.652 219.292,214.349C219.292,216.932 218.895,219.468 218.103,221.961C217.311,224.455 216.137,226.699 214.583,228.693C213.027,230.688 211.12,232.287 208.862,233.489C206.603,234.692 204.008,235.293 201.075,235.293C198.199,235.293 195.633,234.707 193.375,233.533C191.115,232.36 189.209,230.805 187.655,228.869C186.099,226.933 184.912,224.704 184.091,222.181C183.269,219.66 182.859,217.048 182.859,214.349C182.859,211.769 183.256,209.232 184.048,206.738Z" style="fill:rgb(31,72,152);fill-rule:nonzero;"/>
                    <path id="XMLID_236_" d="M245.823,236.79C248.492,239.665 251.632,241.924 255.239,243.566C258.847,245.209 262.704,246.03 266.811,246.03C273.44,246.03 279.247,243.537 284.235,238.55L284.235,245.59L294.267,245.59L294.267,213.47L271.651,213.47L271.651,222.358L284.235,222.358L284.235,226.758C279.365,232.449 273.909,235.294 267.867,235.294C265.227,235.294 262.777,234.752 260.519,233.666C258.26,232.581 256.309,231.1 254.667,229.222C253.023,227.345 251.732,225.13 250.795,222.578C249.856,220.026 249.387,217.285 249.387,214.35C249.387,211.534 249.812,208.865 250.663,206.342C251.513,203.821 252.716,201.59 254.27,199.654C255.824,197.718 257.702,196.193 259.902,195.078C262.102,193.964 264.522,193.406 267.163,193.406C270.507,193.406 273.601,194.228 276.446,195.87C279.291,197.514 281.507,199.89 283.091,202.998L292.155,196.31C290.044,192.145 286.889,188.83 282.695,186.366C278.5,183.902 273.469,182.67 267.603,182.67C263.261,182.67 259.243,183.506 255.547,185.178C251.851,186.85 248.639,189.109 245.91,191.954C243.182,194.801 241.04,198.114 239.486,201.898C237.931,205.682 237.154,209.716 237.154,213.998C237.154,218.516 237.931,222.725 239.486,226.626C241.041,230.528 243.153,233.916 245.823,236.79Z" style="fill:rgb(31,72,152);fill-rule:nonzero;"/>
                </g>
            </g>
        </g>
    </g>
</svg>
